<?xml version="1.0" encoding="UTF-8"?>
<svg id="Layer_2" xmlns="http://www.w3.org/2000/svg" viewBox="0 0 295.34 346.96">
  <defs>
    <style>
      .cls-1 {
        fill: #fff;
      }
    </style>
  </defs>
  <g id="Layer_1-2" data-name="Layer_1">
    <g>
      <path class="cls-1" d="M118.1,145.7h0s-23.62-12.31-23.62-12.31l-23.62-12.3-23.62-12.3-23.62-12.31L0,84.18v188.95l23.62,12.31,23.62,12.3v-47.23l23.62,12.31,23.62,12.3v47.23l23.62,12.31,23.62,12.3v-188.96l-23.62-12.3ZM94.48,204.25v23.62l-23.62-12.3-23.62-12.31v-47.26l23.62,12.31,23.62,12.3v23.63Z"/>
      <path class="cls-1" d="M271.72,96.48l-23.62,12.31-23.61,12.3-23.62,12.3-23.62,12.3h0s-23.62,12.31-23.62,12.31v47.24l23.62-12.31,23.62-12.31v94.51l-23.62,12.31-23.62,12.31v47.21l23.62-12.31,23.62-12.3,23.62-12.31,23.61-12.3,23.62-12.3,23.62-12.31v-47.24l-23.62,12.31-23.62,12.31v-94.51l23.62-12.31,23.62-12.31v-47.2l-23.62,12.3Z"/>
      <path class="cls-1" d="M265.81,61.52l-23.62-12.3-23.63,12.3-23.62,12.3-47.24,24.6-23.63-12.31-23.63-12.31,23.62-12.28,23.62-12.3,23.62-12.3,23.64-12.3-23.64-12.31L147.66,0h-.01l-23.61,12.3h-.01l-23.61,12.3h-.01l-23.62,12.28-23.62,12.3-23.61,12.3h-.01l-23.61,12.3,23.62,12.31,23.62,12.3,23.63,12.31,23.63,12.31,23.61,12.3,23.59,12.28,23.61-12.3,23.62-12.3,23.61-12.3,23.62-12.31,23.62-12.3,23.63-12.31-23.55-12.25Z"/>
    </g>
  </g>
</svg>